<svg width="27" height="27" viewBox="0 0 27 27" fill="none" xmlns="http://www.w3.org/2000/svg">
<path d="M23.625 17.9999V8.99989C23.6246 8.60532 23.5204 8.2178 23.323 7.8762C23.1255 7.5346 22.8417 7.25092 22.5 7.05364L14.625 2.55364C14.283 2.35616 13.895 2.2522 13.5 2.2522C13.105 2.2522 12.717 2.35616 12.375 2.55364L4.5 7.05364C4.1583 7.25092 3.87448 7.5346 3.67702 7.8762C3.47956 8.2178 3.3754 8.60532 3.375 8.99989V17.9999C3.3754 18.3945 3.47956 18.782 3.67702 19.1236C3.87448 19.4652 4.1583 19.7489 4.5 19.9461L12.375 24.4461C12.717 24.6436 13.105 24.7476 13.5 24.7476C13.895 24.7476 14.283 24.6436 14.625 24.4461L22.5 19.9461C22.8417 19.7489 23.1255 19.4652 23.323 19.1236C23.5204 18.782 23.6246 18.3945 23.625 17.9999Z" stroke="#A6A6A6" stroke-width="2" stroke-linecap="round" stroke-linejoin="round"/>
<path d="M8.4375 4.73633L13.5 7.66133L18.5625 4.73633" stroke="#A6A6A6" stroke-width="2" stroke-linecap="round" stroke-linejoin="round"/>
<path d="M8.4375 22.2638V16.425L3.375 13.5" stroke="#A6A6A6" stroke-width="2" stroke-linecap="round" stroke-linejoin="round"/>
<path d="M23.625 13.5L18.5625 16.425V22.2638" stroke="#A6A6A6" stroke-width="2" stroke-linecap="round" stroke-linejoin="round"/>
<path d="M3.67871 7.83008L13.5 13.5113L23.3212 7.83008" stroke="#A6A6A6" stroke-width="2" stroke-linecap="round" stroke-linejoin="round"/>
<path d="M13.5 24.84V13.5" stroke="#A6A6A6" stroke-width="2" stroke-linecap="round" stroke-linejoin="round"/>
</svg>
