<svg width="14" height="14" viewBox="0 0 14 14" fill="none" xmlns="http://www.w3.org/2000/svg">
<path d="M6.57257 0C6.05625 0.481092 5.64212 1.06125 5.35489 1.70585C5.06766 2.35046 4.91321 3.04632 4.90076 3.75191C4.88831 4.4575 5.01811 5.15837 5.28242 5.81271C5.54674 6.46704 5.94014 7.06145 6.43917 7.56045C6.9382 8.05946 7.53263 8.45284 8.187 8.71714C8.84138 8.98144 9.54228 9.11123 10.2479 9.09879C10.9535 9.08634 11.6494 8.9319 12.2941 8.64468C12.9387 8.35746 13.5189 7.94335 14 7.42706C13.7772 11.095 10.7319 14 7.00771 14C3.13704 14 0 10.8631 0 6.99334C0 3.26931 2.90511 0.224213 6.57257 0Z" fill="black"/>
</svg>
