<svg width="40" height="40" viewBox="0 0 40 40" fill="none" xmlns="http://www.w3.org/2000/svg">
<path d="M7.5 33.75C7.86458 33.75 8.15104 33.6458 8.35938 33.4375C8.61979 33.1771 8.75 32.8646 8.75 32.5C8.75 32.1354 8.61979 31.849 8.35938 31.6406C8.15104 31.3802 7.86458 31.25 7.5 31.25C7.13542 31.25 6.82292 31.3802 6.5625 31.6406C6.35417 31.849 6.25 32.1354 6.25 32.5C6.25 32.8646 6.35417 33.1771 6.5625 33.4375C6.82292 33.6458 7.13542 33.75 7.5 33.75ZM37.5 25H25.625L33.9844 16.5625C34.5052 16.0938 34.7656 15.5208 34.7656 14.8438C34.7656 14.1146 34.5052 13.5156 33.9844 13.0469L26.9531 6.01562C26.4844 5.49479 25.8854 5.23438 25.1562 5.23438C24.4792 5.23438 23.9062 5.49479 23.4375 6.01562L15 14.375V2.5C15 1.82292 14.7396 1.25 14.2188 0.78125C13.75 0.260417 13.1771 0 12.5 0H2.5C1.82292 0 1.22396 0.260417 0.703125 0.78125C0.234375 1.25 0 1.82292 0 2.5V32.5C0 34.5833 0.729167 36.3542 2.1875 37.8125C3.64583 39.2708 5.41667 40 7.5 40H37.5C38.1771 40 38.75 39.7396 39.2188 39.2188C39.7396 38.75 40 38.1771 40 37.5V27.5C40 26.8229 39.7396 26.25 39.2188 25.7812C38.75 25.2604 38.1771 25 37.5 25ZM12.5 32.5C12.5 33.8542 12.0052 35.026 11.0156 36.0156C10.026 37.0052 8.85417 37.5 7.5 37.5C6.14583 37.5 4.97396 37.0052 3.98438 36.0156C2.99479 35.026 2.5 33.8542 2.5 32.5V22.5H12.5V32.5ZM12.5 20H2.5V12.5H12.5V20ZM12.5 10H2.5V2.5H12.5V10ZM15 17.8906L25.1562 7.73438L32.2656 14.8438L15 32.1094V17.8906ZM37.5 37.5H13.125L23.125 27.5H37.5V37.5Z" fill="#D566FF"/>
</svg>
