<svg width="45" height="36" viewBox="0 0 45 36" fill="none" xmlns="http://www.w3.org/2000/svg">
<path d="M41.25 0.5H8.75C7.70833 0.5 6.82292 0.864583 6.09375 1.59375C5.36458 2.32292 5 3.20833 5 4.25V5.5H3.75C2.70833 5.5 1.82292 5.86458 1.09375 6.59375C0.364583 7.32292 0 8.20833 0 9.25V31.75C0 32.7917 0.364583 33.6771 1.09375 34.4062C1.82292 35.1354 2.70833 35.5 3.75 35.5H36.25C37.2917 35.5 38.1771 35.1354 38.9062 34.4062C39.6354 33.6771 40 32.7917 40 31.75V30.5H41.25C42.2917 30.5 43.1771 30.1354 43.9062 29.4062C44.6354 28.6771 45 27.7917 45 26.75V4.25C45 3.20833 44.6354 2.32292 43.9062 1.59375C43.1771 0.864583 42.2917 0.5 41.25 0.5ZM37.5 31.75C37.5 32.1146 37.3698 32.4271 37.1094 32.6875C36.901 32.8958 36.6146 33 36.25 33H3.75C3.38542 33 3.07292 32.8958 2.8125 32.6875C2.60417 32.4271 2.5 32.1146 2.5 31.75V9.25C2.5 8.88542 2.60417 8.59896 2.8125 8.39062C3.07292 8.13021 3.38542 8 3.75 8H5V26.75C5 27.7917 5.36458 28.6771 6.09375 29.4062C6.82292 30.1354 7.70833 30.5 8.75 30.5H37.5V31.75ZM42.5 26.75C42.5 27.1146 42.3698 27.4271 42.1094 27.6875C41.901 27.8958 41.6146 28 41.25 28H8.75C8.38542 28 8.07292 27.8958 7.8125 27.6875C7.60417 27.4271 7.5 27.1146 7.5 26.75V4.25C7.5 3.88542 7.60417 3.59896 7.8125 3.39062C8.07292 3.13021 8.38542 3 8.75 3H41.25C41.6146 3 41.901 3.13021 42.1094 3.39062C42.3698 3.59896 42.5 3.88542 42.5 4.25V26.75ZM13.75 13.625C14.9479 13.625 15.9635 13.2083 16.7969 12.375C17.6823 11.4896 18.125 10.4479 18.125 9.25C18.125 8.05208 17.6823 7.03646 16.7969 6.20312C15.9635 5.31771 14.9479 4.875 13.75 4.875C12.5521 4.875 11.5104 5.31771 10.625 6.20312C9.79167 7.03646 9.375 8.05208 9.375 9.25C9.375 10.4479 9.79167 11.4896 10.625 12.375C11.5104 13.2083 12.5521 13.625 13.75 13.625ZM13.75 7.375C14.2708 7.375 14.7135 7.55729 15.0781 7.92188C15.4427 8.28646 15.625 8.72917 15.625 9.25C15.625 9.77083 15.4427 10.2135 15.0781 10.5781C14.7135 10.9427 14.2708 11.125 13.75 11.125C13.2292 11.125 12.7865 10.9427 12.4219 10.5781C12.0573 10.2135 11.875 9.77083 11.875 9.25C11.875 8.72917 12.0573 8.28646 12.4219 7.92188C12.7865 7.55729 13.2292 7.375 13.75 7.375ZM32.5781 9.17188C32.2135 8.80729 31.7708 8.625 31.25 8.625C30.7292 8.625 30.2865 8.80729 29.9219 9.17188L22.5 16.5938L20.0781 14.1719C19.7135 13.8073 19.2708 13.625 18.75 13.625C18.2292 13.625 17.7865 13.8073 17.4219 14.1719L10.5469 21.0469C10.1823 21.4115 10 21.8542 10 22.375V24.5625C10 24.8229 10.0781 25.0573 10.2344 25.2656C10.4427 25.4219 10.6771 25.5 10.9375 25.5H39.0625C39.3229 25.5 39.5312 25.4219 39.6875 25.2656C39.8958 25.0573 40 24.8229 40 24.5625V17.375C40 16.8542 39.8177 16.4115 39.4531 16.0469L32.5781 9.17188ZM37.5 23H12.5V22.6094L18.75 16.3594L22.5 20.1094L31.25 11.3594L37.5 17.6094V23Z" fill="#8774FF"/>
</svg>
