<svg width="40" height="36" viewBox="0 0 40 36" fill="none" xmlns="http://www.w3.org/2000/svg">
<path d="M2.5 2.53125V0.96875C2.5 0.864583 2.55208 0.760417 2.65625 0.65625C2.76042 0.552083 2.86458 0.5 2.96875 0.5H12.0312C12.1354 0.5 12.2396 0.552083 12.3438 0.65625C12.4479 0.760417 12.5 0.864583 12.5 0.96875V2.53125C12.5 2.63542 12.4479 2.73958 12.3438 2.84375C12.2396 2.94792 12.1354 3 12.0312 3H2.96875C2.86458 3 2.76042 2.94792 2.65625 2.84375C2.55208 2.73958 2.5 2.63542 2.5 2.53125ZM29.375 20.5C29.375 18.7812 28.9583 17.2188 28.125 15.8125C27.2917 14.3542 26.1458 13.2083 24.6875 12.375C23.2812 11.5417 21.7188 11.125 20 11.125C18.2812 11.125 16.6927 11.5417 15.2344 12.375C13.8281 13.2083 12.7083 14.3542 11.875 15.8125C11.0417 17.2188 10.625 18.7812 10.625 20.5C10.625 22.2188 11.0417 23.8073 11.875 25.2656C12.7083 26.6719 13.8281 27.7917 15.2344 28.625C16.6927 29.4583 18.2812 29.875 20 29.875C21.7188 29.875 23.2812 29.4583 24.6875 28.625C26.1458 27.7917 27.2917 26.6719 28.125 25.2656C28.9583 23.8073 29.375 22.2188 29.375 20.5ZM26.875 20.5C26.875 22.375 26.1979 23.9896 24.8438 25.3438C23.4896 26.6979 21.875 27.375 20 27.375C18.125 27.375 16.5104 26.6979 15.1562 25.3438C13.8021 23.9896 13.125 22.375 13.125 20.5C13.125 18.625 13.8021 17.0104 15.1562 15.6562C16.5104 14.3021 18.125 13.625 20 13.625C21.875 13.625 23.4896 14.3021 24.8438 15.6562C26.1979 17.0104 26.875 18.625 26.875 20.5ZM17.5 20.5C17.5 19.8229 17.7344 19.25 18.2031 18.7812C18.724 18.2604 19.3229 18 20 18C20.3646 18 20.651 17.8958 20.8594 17.6875C21.1198 17.4271 21.25 17.1146 21.25 16.75C21.25 16.3854 21.1198 16.099 20.8594 15.8906C20.651 15.6302 20.3646 15.5 20 15.5C18.6458 15.5 17.474 15.9948 16.4844 16.9844C15.4948 17.974 15 19.1458 15 20.5C15 20.8646 15.1042 21.1771 15.3125 21.4375C15.5729 21.6458 15.8854 21.75 16.25 21.75C16.6146 21.75 16.901 21.6458 17.1094 21.4375C17.3698 21.1771 17.5 20.8646 17.5 20.5ZM40 4.25V31.75C40 32.7917 39.6354 33.6771 38.9062 34.4062C38.1771 35.1354 37.2917 35.5 36.25 35.5H3.75C2.70833 35.5 1.82292 35.1354 1.09375 34.4062C0.364583 33.6771 0 32.7917 0 31.75V9.25C0 8.20833 0.364583 7.32292 1.09375 6.59375C1.82292 5.86458 2.70833 5.5 3.75 5.5H14.375L17.0312 1.98438C17.7604 0.994792 18.75 0.5 20 0.5H36.25C37.2917 0.5 38.1771 0.864583 38.9062 1.59375C39.6354 2.32292 40 3.20833 40 4.25ZM17.5 5.5H36.25C36.6667 5.5 37.0833 5.57812 37.5 5.73438V4.25C37.5 3.88542 37.3698 3.59896 37.1094 3.39062C36.901 3.13021 36.6146 3 36.25 3H20C19.5833 3 19.2448 3.15625 18.9844 3.46875L17.5 5.5ZM37.5 9.25C37.5 8.88542 37.3698 8.59896 37.1094 8.39062C36.901 8.13021 36.6146 8 36.25 8H3.75C3.38542 8 3.07292 8.13021 2.8125 8.39062C2.60417 8.59896 2.5 8.88542 2.5 9.25V31.75C2.5 32.1146 2.60417 32.4271 2.8125 32.6875C3.07292 32.8958 3.38542 33 3.75 33H36.25C36.6146 33 36.901 32.8958 37.1094 32.6875C37.3698 32.4271 37.5 32.1146 37.5 31.75V9.25Z" fill="#FF6080"/>
</svg>
