<svg width="45" height="36" viewBox="0 0 45 36" fill="none" xmlns="http://www.w3.org/2000/svg">
<path d="M44.0625 15.5C44.3229 15.5 44.5312 15.4219 44.6875 15.2656C44.8958 15.0573 45 14.8229 45 14.5625V8.9375C45 8.67708 44.8958 8.46875 44.6875 8.3125C44.5312 8.10417 44.3229 8 44.0625 8H38.4375C38.1771 8 37.9427 8.10417 37.7344 8.3125C37.5781 8.46875 37.5 8.67708 37.5 8.9375V10.5H30V8H31.5625C31.8229 8 32.0312 7.92188 32.1875 7.76562C32.3958 7.55729 32.5 7.32292 32.5 7.0625V1.4375C32.5 1.17708 32.3958 0.96875 32.1875 0.8125C32.0312 0.604167 31.8229 0.5 31.5625 0.5H25.9375C25.6771 0.5 25.4427 0.604167 25.2344 0.8125C25.0781 0.96875 25 1.17708 25 1.4375V3H7.5V1.4375C7.5 1.17708 7.39583 0.96875 7.1875 0.8125C7.03125 0.604167 6.82292 0.5 6.5625 0.5H0.9375C0.677083 0.5 0.442708 0.604167 0.234375 0.8125C0.078125 0.96875 0 1.17708 0 1.4375V7.0625C0 7.32292 0.078125 7.55729 0.234375 7.76562C0.442708 7.92188 0.677083 8 0.9375 8H2.5V20.5H0.9375C0.677083 20.5 0.442708 20.6042 0.234375 20.8125C0.078125 20.9688 0 21.1771 0 21.4375V27.0625C0 27.3229 0.078125 27.5573 0.234375 27.7656C0.442708 27.9219 0.677083 28 0.9375 28H6.5625C6.82292 28 7.03125 27.9219 7.1875 27.7656C7.39583 27.5573 7.5 27.3229 7.5 27.0625V25.5H15V28H13.4375C13.1771 28 12.9427 28.1042 12.7344 28.3125C12.5781 28.4688 12.5 28.6771 12.5 28.9375V34.5625C12.5 34.8229 12.5781 35.0312 12.7344 35.1875C12.9427 35.3958 13.1771 35.5 13.4375 35.5H19.0625C19.3229 35.5 19.5312 35.3958 19.6875 35.1875C19.8958 35.0312 20 34.8229 20 34.5625V33H37.5V34.5625C37.5 34.8229 37.5781 35.0312 37.7344 35.1875C37.9427 35.3958 38.1771 35.5 38.4375 35.5H44.0625C44.3229 35.5 44.5312 35.3958 44.6875 35.1875C44.8958 35.0312 45 34.8229 45 34.5625V28.9375C45 28.6771 44.8958 28.4688 44.6875 28.3125C44.5312 28.1042 44.3229 28 44.0625 28H42.5V15.5H44.0625ZM30 23V25.5H27.5V23H30ZM27.5 3H30V5.5H27.5V3ZM2.5 3H5V5.5H2.5V3ZM5 25.5H2.5V23H5V25.5ZM6.5625 20.5H5V8H6.5625C6.82292 8 7.03125 7.92188 7.1875 7.76562C7.39583 7.55729 7.5 7.32292 7.5 7.0625V5.5H25V7.0625C25 7.32292 25.0781 7.55729 25.2344 7.76562C25.4427 7.92188 25.6771 8 25.9375 8H27.5V20.5H25.9375C25.6771 20.5 25.4427 20.6042 25.2344 20.8125C25.0781 20.9688 25 21.1771 25 21.4375V23H7.5V21.4375C7.5 21.1771 7.39583 20.9688 7.1875 20.8125C7.03125 20.6042 6.82292 20.5 6.5625 20.5ZM17.5 33H15V30.5H17.5V33ZM37.5 28.9375V30.5H20V28.9375C20 28.6771 19.8958 28.4688 19.6875 28.3125C19.5312 28.1042 19.3229 28 19.0625 28H17.5V25.5H25V27.0625C25 27.3229 25.0781 27.5573 25.2344 27.7656C25.4427 27.9219 25.6771 28 25.9375 28H31.5625C31.8229 28 32.0312 27.9219 32.1875 27.7656C32.3958 27.5573 32.5 27.3229 32.5 27.0625V21.4375C32.5 21.1771 32.3958 20.9688 32.1875 20.8125C32.0312 20.6042 31.8229 20.5 31.5625 20.5H30V13H37.5V14.5625C37.5 14.8229 37.5781 15.0573 37.7344 15.2656C37.9427 15.4219 38.1771 15.5 38.4375 15.5H40V28H38.4375C38.1771 28 37.9427 28.1042 37.7344 28.3125C37.5781 28.4688 37.5 28.6771 37.5 28.9375ZM42.5 33H40V30.5H42.5V33ZM40 13V10.5H42.5V13H40Z" fill="#DDA10C"/>
</svg>
