<svg width="45" height="42" viewBox="0 0 45 42" fill="none" xmlns="http://www.w3.org/2000/svg">
<path d="M18.3594 41L15.3125 40.0625C15.1562 40.0104 15.026 39.9062 14.9219 39.75C14.8698 39.6458 14.8438 39.4896 14.8438 39.2812L25.8594 1.46875C25.9115 1.3125 26.0156 1.18229 26.1719 1.07812C26.3281 0.973958 26.4844 0.947917 26.6406 1L29.6875 1.9375C29.8438 1.9375 29.9479 2.01562 30 2.17188C30.1042 2.32812 30.1562 2.51042 30.1562 2.71875L19.1406 40.5312C19.0885 40.6875 18.9844 40.8177 18.8281 40.9219C18.6719 41.026 18.5156 41.0521 18.3594 41ZM11.875 31.5469L13.9844 29.2812C14.0885 29.125 14.1406 28.9688 14.1406 28.8125C14.1406 28.6042 14.0625 28.4479 13.9062 28.3438L5.625 21L13.9062 13.6562C14.0625 13.5521 14.1406 13.4219 14.1406 13.2656C14.1406 13.0573 14.0885 12.875 13.9844 12.7188L11.875 10.4531C11.7188 10.349 11.5625 10.2969 11.4062 10.2969C11.25 10.2969 11.0938 10.349 10.9375 10.4531L0.234375 20.5312C0.078125 20.6875 0 20.8438 0 21C0 21.1562 0.078125 21.3125 0.234375 21.4688L10.9375 31.5469C11.0938 31.651 11.25 31.7031 11.4062 31.7031C11.5625 31.7031 11.7188 31.651 11.875 31.5469ZM34.0625 31.5469L44.7656 21.4688C44.9219 21.3125 45 21.1562 45 21C45 20.8438 44.9219 20.6875 44.7656 20.5312L34.0625 10.4531C33.9062 10.349 33.75 10.2969 33.5938 10.2969C33.4375 10.2969 33.2812 10.349 33.125 10.4531L31.0156 12.7188C30.9115 12.875 30.8594 13.0573 30.8594 13.2656C30.8594 13.4219 30.9375 13.5521 31.0938 13.6562L39.375 21L31.0938 28.3438C30.9375 28.4479 30.8594 28.6042 30.8594 28.8125C30.8594 28.9688 30.9115 29.125 31.0156 29.2812L33.125 31.5469C33.2812 31.651 33.4375 31.7031 33.5938 31.7031C33.75 31.7031 33.9062 31.651 34.0625 31.5469Z" fill="#269FFF"/>
</svg>
