<svg width="14" height="14" viewBox="0 0 14 14" fill="none" xmlns="http://www.w3.org/2000/svg">
<path d="M7 10.8182C5.98736 10.8182 5.01619 10.4159 4.30014 9.69986C3.58409 8.98381 3.18182 8.01264 3.18182 7C3.18182 5.98736 3.58409 5.01619 4.30014 4.30014C5.01619 3.58409 5.98736 3.18182 7 3.18182C8.01264 3.18182 8.98381 3.58409 9.69986 4.30014C10.4159 5.01619 10.8182 5.98736 10.8182 7C10.8182 8.01264 10.4159 8.98381 9.69986 9.69986C8.98381 10.4159 8.01264 10.8182 7 10.8182ZM6.36364 0H7.63636V1.90909H6.36364V0ZM6.36364 12.0909H7.63636V14H6.36364V12.0909ZM1.60045 2.50027L2.50027 1.60045L3.85 2.95018L2.95018 3.85L1.60045 2.50027ZM10.15 11.0498L11.0498 10.15L12.3995 11.4997L11.4997 12.3995L10.15 11.0498ZM11.4997 1.59982L12.3995 2.50027L11.0498 3.85L10.15 2.95018L11.4997 1.59982ZM2.95018 10.15L3.85 11.0498L2.50027 12.3995L1.60045 11.4997L2.95018 10.15ZM14 6.36364V7.63636H12.0909V6.36364H14ZM1.90909 6.36364V7.63636H0V6.36364H1.90909Z" fill="white"/>
</svg>
